HIERARCHY
ROOT Hips
{
    OFFSET 0.0 0.0 0.0
    CHANNELS 6 Xposition Yposition Zposition Zrotation Xrotation Yrotation
    JOINT LeftHipJoint
    {
        OFFSET 0.1 0.0 0.0
        CHANNELS 3 Zrotation Xrotation Yrotation
        JOINT LeftUpLeg
        {
            OFFSET 128.28218696293922 0.0 0.0
            CHANNELS 3 Zrotation Xrotation Yrotation
            JOINT LeftLeg
            {
                OFFSET 0.0 0.0 -427.28535897766255
                CHANNELS 3 Zrotation Xrotation Yrotation
                JOINT LeftFoot
                {
                    OFFSET 0.0 0.0 -389.3870595807565
                    CHANNELS 3 Zrotation Xrotation Yrotation
                    End Site
                    {
                        OFFSET 0.0 -0.1 0.0
                    }
                }
            }
        }
    }
    JOINT LowerBack
    {
        OFFSET 0.0 0.0 0.1
        CHANNELS 3 Zrotation Xrotation Yrotation
        JOINT Spine
        {
            OFFSET 0.0 0.0 218.76537422534898
            CHANNELS 3 Zrotation Xrotation Yrotation
            JOINT Spine1
            {
                OFFSET 0.0 0.0 251.1710154158016
                CHANNELS 3 Zrotation Xrotation Yrotation
                JOINT LeftShoulder
                {
                    OFFSET 0.1 0.0 0.0
                    CHANNELS 3 Zrotation Xrotation Yrotation
                    JOINT LeftArm
                    {
                        OFFSET 142.4587831115723 0.0 0.0
                        CHANNELS 3 Zrotation Xrotation Yrotation
                        JOINT LeftForeArm
                        {
                            OFFSET 266.27758742981416 0.0 0.0
                            CHANNELS 3 Zrotation Xrotation Yrotation
                            JOINT LeftHand
                            {
                                OFFSET 247.65551350645273 0.0 0.0
                                CHANNELS 3 Zrotation Xrotation Yrotation
                                End Site
                                {
                                    OFFSET 0.1 0.0 0.0
                                }
                            }
                        }
                    }
                }
                JOINT Neck
                {
                    OFFSET 0.0 0.0 0.1
                    CHANNELS 3 Zrotation Xrotation Yrotation
                    JOINT Neck1
                    {
                        OFFSET 0.0 0.0 103.70871087641927
                        CHANNELS 3 Zrotation Xrotation Yrotation
                        End Site
                        {
                            OFFSET 0.0 0.0 112.46315845359184
                        }
                    }
                }
                JOINT RightShoulder
                {
                    OFFSET -0.1 0.0 0.0
                    CHANNELS 3 Zrotation Xrotation Yrotation
                    JOINT RightArm
                    {
                        OFFSET -142.4587831115723 0.0 0.0
                        CHANNELS 3 Zrotation Xrotation Yrotation
                        JOINT RightForeArm
                        {
                            OFFSET -266.27758742981416 0.0 0.0
                            CHANNELS 3 Zrotation Xrotation Yrotation
                            JOINT RightHand
                            {
                                OFFSET -247.65551350645273 0.0 0.0
                                CHANNELS 3 Zrotation Xrotation Yrotation
                                End Site
                                {
                                    OFFSET -0.1 0.0 0.0
                                }
                            }
                        }
                    }
                }
            }
        }
    }
    JOINT RightHipJoint
    {
        OFFSET -0.1 0.0 0.0
        CHANNELS 3 Zrotation Xrotation Yrotation
        JOINT RightUpLeg
        {
            OFFSET -128.28218696293922 0.0 0.0
            CHANNELS 3 Zrotation Xrotation Yrotation
            JOINT RightLeg
            {
                OFFSET 0.0 0.0 -427.28535897766255
                CHANNELS 3 Zrotation Xrotation Yrotation
                JOINT RightFoot
                {
                    OFFSET 0.0 0.0 -389.3870595807565
                    CHANNELS 3 Zrotation Xrotation Yrotation
                    End Site
                    {
                        OFFSET 0.0 -0.1 0.0
                    }
                }
            }
        }
    }
}
MOTION
Frames: 11
Frame Time: 0.03333333333333333
0.0 0.0 819.3586374510146 28.262681930680426 2.999151243347079 3.7377205727689913 0.0 0.0 1.987846675914698e-16 -0.3597914234584056 -15.409613445893562 -0.5577249415003027 0.3461215462398232 23.478156471807015 -1.4009724041488463 -1.3793457181406746e-33 -1.987846675914698e-16 -7.951386703658792e-16 0.0 0.0 1.987846675914698e-16 0.18147135217112717 7.906543874176417 0.8964244234394997 -0.10100846528936222 1.5888749490577619e-15 1.591678496790869e-15 0.0 0.0 3.975693351829396e-16 -14.955225562044065 8.781060808518799 65.19015056380776 -127.1919713378597 1.56282083905471e-14 6.444693228688533e-15 6.361109362927035e-15 0.0 0.0 0.0 0.0 3.975693351829396e-16 -8.346372571840538 -7.695102324996478 -8.124490407522305 0.0 0.0 3.975693351829396e-16 9.771896033952816 2.1440278377674495 -64.04535652450235 124.7496203721772 -5.5043576622021484e-15 -1.0060273942079805e-14 0.0 0.0 -3.1805546814635168e-15 0.0 0.0 1.987846675914698e-16 -0.22881384658517206 -9.91927421419575 -3.0971377775733178 -0.8677698166957432 26.10670713666246 1.3370571132646825 0.0 0.0 7.951386703658792e-16
0.0 0.0 819.3586374510146 28.152566326782456 2.8380991177234116 3.772140568894221 0.0 0.0 -4.969616689786745e-17 -0.35935530584153375 -15.175993548905149 -0.6106918673966503 0.33057954624437325 23.441655650285973 -1.3488814343322413 0.0 0.0 0.0 0.0 0.0 -4.969616689786745e-17 0.1850298072735901 7.943427340554535 0.8263906712111652 -0.04882193742718109 -9.937538626319393e-16 -3.979927618917009e-16 0.0 0.0 3.975693351829396e-16 -14.878575483829227 8.864875681743214 65.31292102511203 -127.17644493275263 9.912917177695719e-15 1.6384030822500672e-14 0.0 0.0 0.0 0.0 0.0 3.975693351829396e-16 -8.5490530456965 -7.663080958212006 -8.193007861642386 0.0 0.0 3.975693351829396e-16 9.51762362854087 1.984592069873912 -63.98139841535933 124.63391357869789 -8.449440808759099e-15 -4.4328662009237124e-15 0.0 0.0 0.0 0.0 0.0 -4.969616689786745e-17 -0.228974133478532 -9.785693426149699 -3.0615015806223047 -0.8390653549540369 26.056919109244372 1.3471525783075833 0.0 -3.1805546814635168e-15 0.0
0.0 0.0 819.3586374510146 28.208938062702643 2.5219776056240897 3.8179596474735162 0.0 0.0 -3.4787316828507215e-16 -0.35377292442079067 -14.842816611770653 -0.6264589999554724 0.32927317516752846 23.56000565584252 -1.3624177721910478 0.0 0.0 0.0 0.0 0.0 -3.4787316828507215e-16 0.18990578571320235 8.08809844437769 0.757116158229512 -0.04962845693361419 -1.3926978256940715e-15 2.7823824437561656e-15 0.0 0.0 7.951386703658792e-16 -14.946696315933375 8.90001444488095 65.33665254001463 -127.04516177233039 0.0 0.0 6.3611093629270335e-15 3.531125038440127e-31 6.3611093629270335e-15 0.0 0.0 7.951386703658792e-16 -8.834371386960877 -7.587162405213434 -8.273283450086351 0.0 0.0 7.951386703658792e-16 9.203971121430406 1.708599731944489 -63.87406063120136 124.32391853492528 -1.1723887729070545e-14 1.538960023983697e-14 0.0 0.0 -3.1805546814635168e-15 0.0 0.0 -3.4787316828507215e-16 -0.2224751851601463 -9.439211991916828 -3.0926829957565714 -0.8502156277739493 26.06543097443174 1.3399253697718645 0.0 -3.1805546814635164e-15 0.0
0.0 0.0 819.3586374510146 28.228582081714556 2.2139320447926067 3.8774562098023475 2.586273221513765e-34 -1.987846675914698e-16 1.4908850069360235e-16 -0.3464645089121408 -14.436217222867333 -0.7129083843246729 0.2955958569823139 23.56681979917177 -1.3352524194534585 0.0 0.0 0.0 2.586273221513765e-34 -1.987846675914698e-16 1.4908850069360235e-16 0.19185089429431812 8.102702747361857 0.693846949851505 -0.026646317334101492 2.5842930568068112e-15 -3.969684125407908e-16 0.0 0.0 -3.975693351829396e-16 -14.939531567574099 9.091404841717539 65.36856438410842 -126.97123309742126 6.409859688656692e-15 -1.0306643559503152e-14 0.0 0.0 0.0 0.0 0.0 -3.975693351829396e-16 -9.026715551252808 -7.322296992316478 -8.226748758034443 0.0 0.0 -3.975693351829396e-16 9.020430946083406 1.539061495035936 -63.836318419029475 124.18100637391389 0.0 0.0 0.0 0.0 -3.1805546814635168e-15 2.586273221513765e-34 -1.987846675914698e-16 1.4908850069360235e-16 -0.2151882317899344 -9.057380235249916 -3.0956960187709113 -0.8437702787625957 25.983276254888395 1.2413570900306536 0.0 0.0 0.0
0.0 0.0 819.3586374510146 28.349179759873763 1.8641271734584035 3.911596710437837 0.0 0.0 7.454425034680117e-17 -0.33259963374504076 -13.97405543090068 -0.698650458802714 0.29766728658854447 23.64186334637369 -1.4198204613044885 -1.3793457181406746e-33 -1.9878466759146977e-16 -7.951386703658791e-16 0.0 0.0 7.454425034680117e-17 0.1908025041850754 8.111436687799014 0.6329051705516762 -0.020514190868119918 -1.788990806758528e-15 -3.978896068469461e-16 0.0 0.0 -7.951386703658792e-16 -14.988997059019187 9.350290045234214 65.38354440069712 -127.05618322445332 -1.1561502686549279e-17 7.111927076436672e-15 0.0 0.0 0.0 0.0 0.0 -7.951386703658792e-16 -9.183134420670934 -7.0301037774238555 -8.154323918092823 0.0 0.0 -7.951386703658792e-16 8.642760056857739 1.4924934001841763 -63.81473710391972 124.20372845518072 1.140910981095731e-14 -1.1572719579472617e-15 0.0 0.0 0.0 0.0 0.0 7.454425034680117e-17 -0.20268094977048393 -8.589275341831538 -3.120670122399582 -0.8582043266852777 25.9061769154276 1.2631204736544255 0.0 0.0 -7.951386703658792e-16
0.0 0.0 819.3586374510146 28.319895204486716 1.4795654684117838 4.039484453429452 -1.5086593792163628e-34 -1.987846675914698e-16 -8.696829207126804e-17 -0.324979012206387 -13.534392582837196 -0.8502651654644575 0.2371563057691401 23.721050514612323 -1.339047421500524 0.0 0.0 7.951386703658792e-16 -1.5086593792163628e-34 -1.987846675914698e-16 -8.696829207126804e-17 0.19147549720213902 8.05897454615752 0.5124515954106931 0.005817470921743451 2.584321775799484e-15 2.3852848158798165e-15 0.0 0.0 3.975693351829396e-16 -14.925673343162092 9.541049522902988 65.48092451056408 -127.0323379745518 -1.279038304386479e-14 -7.841269119907173e-15 6.3611093629270335e-15 0.0 0.0 0.0 0.0 3.975693351829396e-16 -9.251081594232256 -6.71247048956044 -8.060764846879517 0.0 0.0 3.975693351829396e-16 8.298972297214736 1.4585012836377693 -63.7874969461891 124.36912685884079 -1.7188738278754462e-14 5.315729018810586e-15 0.0 0.0 0.0 -1.5086593792163628e-34 -1.987846675914698e-16 -8.696829207126804e-17 -0.19479265132044052 -8.176987155534867 -3.212002508951877 -0.8915193088071777 25.77746440918836 1.3114361552364278 0.0 0.0 0.0
0.0 0.0 819.3586374510146 28.262884870906465 1.3306682489694595 4.035007453496814 0.0 0.0 2.484808344893373e-16 -0.3041865271544178 -13.417913750807159 -0.8238397298026406 0.21621007318277874 23.887085044159853 -1.3047225120506987 0.0 0.0 -7.951386703658792e-16 0.0 0.0 2.484808344893373e-16 0.17967677911236168 8.008264125415083 0.5194681884936384 0.0887572553762273 -2.7842162657121355e-15 -1.588121293793792e-15 0.0 0.0 7.951386703658792e-16 -15.0269165787206 9.607236466223403 65.49193042432485 -127.11012659171499 -2.1209032611000516e-15 -6.04960553997402e-15 0.0 0.0 -6.3611093629270335e-15 0.0 0.0 7.951386703658792e-16 -9.33661213587148 -6.609993650000189 -8.003350449446442 0.0 0.0 7.951386703658792e-16 8.031278624544676 0.9925963546714422 -63.734298325654734 124.50874084881656 5.629729053317498e-15 2.961395467233454e-15 0.0 0.0 -3.1805546814635168e-15 0.0 0.0 2.484808344893373e-16 -0.1801159146925302 -8.008995880271259 -3.160541017726128 -0.9033970232538059 25.772316362999007 1.278440475106116 0.0 -3.1805546814635164e-15 0.0
0.0 0.0 819.3586374510146 28.217919738477573 1.1406871122105906 4.090475579612016 0.0 0.0 9.318031293350146e-17 -0.2995367347763316 -13.25761114673314 -0.9223591236225215 0.17056964299006006 23.922441626240385 -1.1410650507653382 0.0 0.0 3.975693351829396e-16 0.0 0.0 9.318031293350146e-17 0.17822611459549864 7.970208059016401 0.44753197320146865 0.16167819674345504 1.5919585591015594e-15 1.19046308344627e-15 0.0 0.0 7.951386703658792e-16 -15.096185982343686 9.708407985520697 65.55436832101954 -127.27722385570267 7.786424730942607e-15 1.034005071379431e-14 0.0 0.0 -6.3611093629270335e-15 0.0 0.0 7.951386703658792e-16 -9.515306187262755 -6.399719964880378 -7.973882031241592 0.0 0.0 7.951386703658792e-16 7.442282950861787 0.5711463525809235 -63.67241871537348 124.73070024511347 2.8177272984002045e-15 1.4752426761823885e-15 0.0 0.0 0.0 0.0 0.0 9.318031293350146e-17 -0.17588555638804082 -7.853066850283649 -3.1443763927406514 -0.8998061905358562 25.82098997098245 1.2035358254260036 -2.2069531490250793e-32 -3.1805546814635168e-15 -7.951386703658792e-16
0.0 0.0 819.3586374510146 28.12924057837695 0.9881841068974117 4.109836496720335 0.0 0.0 -1.1430118386509513e-15 -0.30048745822822015 -13.168742419871576 -0.9767098328862349 0.15190566751140902 23.937866544563708 -0.95877182922701 0.0 0.0 0.0 0.0 0.0 -1.1430118386509513e-15 0.17958615905634834 7.9549668284039425 0.44304861201708834 0.2580850605975556 3.581646679365241e-18 1.590273307407232e-15 1.1034765745125397e-32 -1.5902773407317584e-15 7.951386703658792e-16 -14.996756424466211 9.582984847436988 65.48678173865818 -127.39273510399693 -1.9828847626378e-14 -1.8581699378145875e-14 0.0 0.0 -6.3611093629270335e-15 1.1034765745125397e-32 -1.5902773407317584e-15 7.951386703658792e-16 -9.653419280391928 -6.397292089454761 -7.973914104426735 1.1034765745125397e-32 -1.5902773407317584e-15 7.951386703658792e-16 6.73646399233239 0.1024100887866324 -63.618388432696335 124.88507699324894 3.0660691090499254e-15 -1.275029402048365e-14 0.0 0.0 6.3611093629270335e-15 0.0 0.0 -1.1430118386509513e-15 -0.1755905656931587 -7.774402175633905 -3.1266291182833212 -0.8880988160410306 25.890610082418274 1.0949258009822385 0.0 0.0 7.951386703658792e-16
0.0 0.0 819.3586374510146 28.131543438964442 0.7968195441490389 4.165776776211943 0.0 0.0 3.727212517340059e-17 -0.29858267018334717 -13.012473908835394 -1.0115902993228523 0.13970479685023074 23.995572759132404 -0.9243806051927214 0.0 0.0 3.975693351829396e-16 0.0 0.0 3.727212517340059e-17 0.17963905062793306 7.913370198954498 0.3774275851269391 0.3119319560524687 5.941873332279556e-16 -7.967590694606048e-16 0.0 0.0 0.0 -14.9763232560043 9.622053036185513 65.50242654470622 -127.51222099612743 -1.0737500052128679e-14 1.23858965078352e-14 1.2722218725854067e-14 0.0 0.0 0.0 0.0 0.0 -9.841147506831861 -6.3487733338918275 -7.959232703004288 0.0 0.0 0.0 6.1026148886446405 -0.385616833578715 -63.504613106021665 125.1637182741277 5.752450916543834e-15 -4.181979060403278e-15 0.0 0.0 0.0 0.0 0.0 3.727212517340059e-17 -0.17563429262167204 -7.738675040770341 -3.143420878395419 -0.8959048498696133 25.969891159504165 1.0592081066836818 0.0 0.0 7.951386703658792e-16
0.0 0.0 819.3586374510146 28.010144134951492 0.6453338966616693 4.222731728955483 0.0 0.0 -6.212020862233431e-16 -0.2982126211553637 -12.878377792804388 -0.9967027143928984 0.15243880817408587 24.13477266303239 -0.928704998167635 0.0 0.0 7.951386703658792e-16 0.0 0.0 -6.212020862233431e-16 0.1805704801308654 7.882077859176003 0.33335864972657386 0.3928700781109894 -3.9211484173367674e-16 1.5916310337558926e-15 0.0 0.0 5.963540027744094e-16 -14.84398938373028 9.764170875791706 65.54332740083522 -127.62130326538819 4.234426052890399e-15 5.006229154779661e-15 0.0 0.0 -6.3611093629270335e-15 0.0 0.0 5.963540027744094e-16 -10.095014278613393 -6.256486144421809 -7.975147463530651 0.0 0.0 5.963540027744094e-16 5.355365790884933 -1.0222695457660795 -63.25288991287625 125.50949673355959 5.7398056825170284e-15 -4.199317936980087e-15 0.0 0.0 0.0 0.0 0.0 -6.212020862233431e-16 -0.1766403994493588 -7.715996633247142 -3.0854099261166716 -0.8639311953718868 26.026260000388564 0.8435631903314758 0.0 0.0 0.0
